<svg xmlns="http://www.w3.org/2000/svg" viewBox="0 0 300 300">
    <defs>
        <path id="base" d="M 80 230 L 220 230 L 220 245 L 240 245 L 240 265 L 60 265 L 60 245 L 80 245 Z"/>
        <path id="pivot" d="M 150 85 L 155 75 L 145 75 Z"/>
        <path id="left-chain" d="M 55 110 H 65 V 170 H 55 Z"/>
        <path id="right-chain" d="M 235 110 H 245 V 170 H 235 Z"/>
        <path id="left-rim" d="M 35 170 L 85 170 C 85 190 75 200 60 200 C 45 200 35 190 35 170 Z"/>
        <path id="right-rim" d="M 215 170 L 265 170 C 265 190 255 200 240 200 C 225 200 215 190 215 170 Z"/>
        
        <path id="pillar" d="M 140 230 H 160 V 85 H 140 Z"/>
        <path id="beam" d="M 50 83 H 250 V 90 H 50 Z"/>
        <path id="left-inner" d="M 38 173 L 82 173 C 80 185 70 193 60 193 C 50 193 40 185 38 173 Z"/>
        <path id="right-inner" d="M 218 173 L 262 173 C 260 185 250 193 240 193 C 230 193 220 185 218 173 Z"/>
        
        <path id="highlight-pillar" d="M 148 220 V 90 H 152 V 220 Z"/>
        <path id="highlight-beam" d="M 50 80 H 250 V 83 H 50 Z"/>
    </defs>
    
    <!-- Bronze Shadow Elements (#B8860B) -->
    <g fill="#B8860B">
        <use href="#base"/>
        <use href="#pivot"/>
        <use href="#left-chain"/>
        <use href="#right-chain"/>
        <use href="#left-rim"/>
        <use href="#right-rim"/>
    </g>
    
    <!-- Gold Elements (#DAA520) -->
    <g fill="#DAA520">
        <use href="#pillar"/>
        <use href="#beam"/>
        <use href="#left-inner"/>
        <use href="#right-inner"/>
    </g>
    
    <!-- Subtle Metallic Highlights (#FFD700) -->
    <g fill="#FFD700">
        <use href="#highlight-pillar"/>
        <use href="#highlight-beam"/>
    </g>
</svg>