<svg width="300" height="300" viewBox="0 0 300 300" fill="none" xmlns="http://www.w3.org/2000/svg">
                <circle cx="150" cy="150" r="110" stroke="#00FFFF" stroke-width="2" opacity="0.3"></circle>
                <circle cx="150" cy="150" r="105" stroke="#00FFFF" stroke-width="6"></circle>
                <!-- Changed background color from #0D1117 to #1F2937 (Slate Gray) for better visibility -->
                <circle cx="150" cy="150" r="100" fill="#1F2937"></circle>
                <defs>
                    <linearGradient id="userGrad" x1="150" y1="80" x2="150" y2="240" gradientUnits="userSpaceOnUse">
                        <stop offset="0%" stop-color="#3B82F6"></stop>
                        <stop offset="100%" stop-color="#1E3A8A"></stop>
                    </linearGradient>
                    <mask id="profMask">
                        <circle cx="150" cy="150" r="100" fill="white"></circle>
                    </mask>
                </defs>
                <g mask="url(#profMask)">
                    <circle cx="150" cy="115" r="38" fill="url(#userGrad)"></circle>
                    <path d="M65 245C65 205 100 175 150 175C200 175 235 205 235 245V300H65V245Z" fill="url(#userGrad)"></path>
                    <!-- Enhanced neon highlights -->
                    <path d="M150 77A38 38 0 0 1 188 115" stroke="#00FFFF" stroke-width="3" stroke-linecap="round" opacity="0.8"></path>
                </g>
                <g transform="translate(210, 210)">
                    <circle cx="15" cy="15" r="35" fill="#1F2937"></circle>
                    <path d="M45 15C45 31.5685 31.5685 45 15 45C-1.56854 45 -15 31.5685 -15 15C-15 -1.56854 -1.56854 -15 15 -15C24.5 -15 32.5 -10 37 -3" stroke="#00FFFF" stroke-width="8" stroke-linecap="round" fill="none"></path>
                    <path d="M30 -10L42 -5L45 8" stroke="#00FFFF" stroke-width="8" stroke-linecap="round" stroke-linejoin="round" fill="none"></path>
                </g>
            </svg>